<?xml version="1.0" encoding="UTF-8"?>
<svg id="Layer_2" data-name="Layer 2" xmlns="http://www.w3.org/2000/svg" viewBox="0 0 486.17 178.28">
  <defs>
    <style>
      .cls-1 {
        fill: #fff;
      }
    </style>
  </defs>
  <g id="Layer_1-2" data-name="Layer 1">
    <g>
      <g>
        <g>
          <g>
            <path class="cls-1" d="m223.3,86.83v-36.9l-13.21,26.87h-7.77l-13.21-26.87v36.9h-14.16V24.89h15.37l15.89,32.37,15.97-32.37h15.28v61.94h-14.16Z"/>
            <path class="cls-1" d="m276.05,87.26c-4.61,0-8.76-.89-12.48-2.66-3.71-1.77-6.9-4.16-9.58-7.15-2.67-3-4.74-6.37-6.17-10.12-1.44-3.75-2.15-7.63-2.15-11.64s.76-8.06,2.29-11.78c1.53-3.72,3.65-7.05,6.39-9.99,2.74-2.93,5.97-5.25,9.71-6.93,3.74-1.69,7.83-2.53,12.26-2.53s8.67.89,12.39,2.66c3.71,1.77,6.91,4.17,9.58,7.2s4.74,6.41,6.17,10.16c1.44,3.75,2.16,7.58,2.16,11.47,0,4.13-.75,8.06-2.25,11.78-1.49,3.73-3.63,7.06-6.39,9.99-2.76,2.93-6,5.26-9.71,6.98-3.71,1.72-7.78,2.57-12.22,2.57Zm-15.97-31.4c0,2.39.35,4.7,1.04,6.93s1.71,4.23,3.06,5.98c1.35,1.74,3.04,3.14,5.05,4.18,2.01,1.05,4.31,1.57,6.9,1.57s5.06-.53,7.08-1.61c2.01-1.07,3.68-2.51,5.01-4.32,1.32-1.8,2.31-3.82,2.98-6.06.66-2.24.99-4.52.99-6.85s-.35-4.68-1.04-6.89c-.69-2.21-1.72-4.2-3.11-5.98s-3.08-3.15-5.1-4.14c-2.01-.99-4.29-1.49-6.82-1.49-2.71,0-5.05.53-7.04,1.57-1.99,1.05-3.66,2.46-5.01,4.23-1.35,1.77-2.36,3.78-3.02,6.02-.67,2.24-.99,4.52-.99,6.85Z"/>
            <path class="cls-1" d="m314.81,86.83V24.89h27.63c2.88,0,5.54.6,7.99,1.79,2.45,1.19,4.56,2.79,6.34,4.8,1.78,2.01,3.18,4.26,4.19,6.76,1.01,2.5,1.51,5.03,1.51,7.59s-.4,4.99-1.21,7.28c-.81,2.3-1.96,4.36-3.45,6.2-1.5,1.83-3.28,3.33-5.35,4.49l13.47,23.03h-15.63l-11.74-19.98h-9.58v19.98h-14.16Zm14.16-32.46h12.95c1.15,0,2.17-.36,3.06-1.09.89-.73,1.63-1.73,2.2-3.01.58-1.28.87-2.76.87-4.45s-.33-3.15-.99-4.41c-.67-1.25-1.48-2.22-2.46-2.92-.98-.7-2.01-1.05-3.11-1.05h-12.52v16.93Z"/>
            <path class="cls-1" d="m372.66,86.83V24.89h14.16v26.7l22.45-26.7h15.88l-22.97,27.66,24.52,34.29h-16.23l-17.27-24.86-6.39,6.63v18.23h-14.16Z"/>
            <path class="cls-1" d="m449.82,24.89h15.28l21.07,61.94h-14.51l-4.15-13.87h-20.18l-4.15,13.87h-14.5l21.15-61.94Zm14.73,38.21l-7.13-23.81-7.14,23.81h14.27Z"/>
          </g>
          <g>
            <path class="cls-1" d="m185.34,114.04l-3.35-4.72c-.41.03-.74.05-.98.05h-3.84v4.67h-2.22v-15.35h6.06c2.01,0,3.6.47,4.75,1.42,1.15.95,1.73,2.26,1.73,3.93,0,1.18-.3,2.19-.89,3.03-.59.84-1.44,1.44-2.53,1.82l3.69,5.16h-2.42Zm-1.18-7.44c.74-.6,1.11-1.45,1.11-2.57s-.37-1.96-1.11-2.55c-.74-.59-1.81-.89-3.22-.89h-3.77v6.91h3.77c1.41,0,2.48-.3,3.22-.9Z"/>
            <path class="cls-1" d="m218.8,112.13v1.91h-11.28v-15.35h10.97v1.91h-8.75v4.71h7.79v1.87h-7.79v4.96h9.06Z"/>
            <path class="cls-1" d="m248.73,110.2h-8.26l-1.71,3.84h-2.29l7.04-15.35h2.2l7.06,15.35h-2.33l-1.71-3.84Zm-.78-1.75l-3.35-7.52-3.35,7.52h6.7Z"/>
            <path class="cls-1" d="m271.51,98.68h2.22v13.44h8.42v1.91h-10.64v-15.35Z"/>
            <path class="cls-1" d="m334.81,112.13v1.91h-11.28v-15.35h10.97v1.91h-8.75v4.71h7.79v1.87h-7.79v4.96h9.06Z"/>
            <path class="cls-1" d="m355.98,113.68c-1.09-.36-1.94-.82-2.57-1.39l.82-1.71c.59.53,1.35.95,2.28,1.28.92.33,1.88.49,2.85.49,1.29,0,2.25-.22,2.89-.65.64-.43.95-1.01.95-1.72,0-.53-.17-.95-.52-1.28-.35-.33-.78-.58-1.29-.75-.51-.18-1.23-.38-2.17-.59-1.17-.28-2.11-.56-2.83-.83s-1.33-.71-1.84-1.28c-.51-.58-.77-1.35-.77-2.34,0-.82.22-1.56.66-2.21.43-.66,1.1-1.18,1.99-1.58.89-.39,1.99-.59,3.31-.59.92,0,1.82.12,2.71.35.89.23,1.65.57,2.28,1.01l-.73,1.75c-.65-.41-1.35-.72-2.09-.93-.74-.21-1.46-.32-2.17-.32-1.26,0-2.2.23-2.83.68-.63.45-.94,1.04-.94,1.75,0,.53.18.96.53,1.28.36.33.8.59,1.32.77.53.18,1.24.38,2.14.58,1.17.28,2.11.56,2.82.84.71.28,1.32.7,1.83,1.27.51.57.77,1.34.77,2.3,0,.8-.22,1.54-.67,2.2-.44.67-1.11,1.19-2.02,1.58-.9.39-2.01.58-3.33.58-1.17,0-2.3-.18-3.39-.53Z"/>
            <path class="cls-1" d="m387.92,100.59h-5.33v-1.91h12.86v1.91h-5.33v13.44h-2.2v-13.44Z"/>
            <path class="cls-1" d="m423.42,110.2h-8.26l-1.71,3.84h-2.29l7.04-15.35h2.2l7.06,15.35h-2.33l-1.71-3.84Zm-.78-1.75l-3.35-7.52-3.35,7.52h6.71Z"/>
            <path class="cls-1" d="m448.51,100.59h-5.33v-1.91h12.86v1.91h-5.33v13.44h-2.2v-13.44Z"/>
            <path class="cls-1" d="m486.17,112.13v1.91h-11.28v-15.35h10.97v1.91h-8.75v4.71h7.79v1.87h-7.79v4.96h9.06Z"/>
          </g>
        </g>
        <g>
          <polygon class="cls-1" points="135.8 97.08 135.8 17.13 135.8 0 135.8 0 22.63 0 22.63 0 22.63 17.13 22.63 97.08 0 97.08 0 114.21 22.63 114.21 33.95 114.21 39.61 114.21 39.61 17.13 118.83 17.13 118.83 114.21 124.47 114.21 135.8 114.21 158.42 114.21 158.42 97.08 135.8 97.08"/>
          <polygon class="cls-1" points="50.93 114.21 73.56 114.21 73.56 45.68 50.93 34.26 50.93 114.21"/>
          <polygon class="cls-1" points="84.88 114.21 107.51 114.21 107.51 34.26 84.88 45.68 84.88 114.21"/>
        </g>
      </g>
      <g>
        <path class="cls-1" d="m51.09,157.78c-5.25,0-9.29-1.93-9.29-6.59,0-1.54.3-3.05,1.12-4.59l.76.32c-.36,1.08-.55,2.05-.55,2.88,0,3.83,3.77,5.4,8.53,5.4,2.22,0,4.38-.32,6.48-.82.87-.21,1.72-.44,2.5-.78.15-.06.19-.15.19-.21,0-.89-.91-2.75-1.9-4.68.46-.82.93-1.54,1.42-2.14h.09c.87,1.54,1.9,3.9,1.9,5.78,0,1.42-.47,2.27-1,3.17-1.65,1-6.5,2.25-10.25,2.25Zm-.74-12.64c-.78-.74-1.46-1.35-2.22-1.97.49-.68,1.02-1.31,1.5-1.8.78.61,1.42,1.23,2.16,2.03-.53.76-.91,1.25-1.44,1.74Zm3.66-.25c-.78-.74-1.46-1.35-2.22-1.97.49-.68,1.02-1.31,1.5-1.8.78.61,1.42,1.23,2.16,2.03-.53.76-.91,1.25-1.44,1.74Z"/>
        <path class="cls-1" d="m65.98,157.34c.19-1.19.21-2.54.21-3.79v-1.86c0-3.47-.38-8.51-.68-11.79.53-.68,1.27-1.48,1.86-2.01l.17.06c.4,4.13.49,8.93.49,13.34,0,1.16-.04,2.29-.13,3.13-.06,1.04-.57,1.84-1.67,3.05l-.25-.13Z"/>
        <path class="cls-1" d="m75.76,147.24l1.35,2.56c.49.95.95,1.97.95,3.6v2.08c0,1.69-.91,3.49-2.39,5.27-1.16,1.21-2.18,1.72-3.13,1.72-1.4,0-3.01-.51-4.87-1.46l.21-.64c.59.19,1.27.34,2.1.34,2.67-.02,5.4-2.31,6.65-5.12.15-.32.21-.62.21-.83,0-.32-.15-.68-.27-1-.68-1.52-1.44-2.9-2.27-4.17.44-.82.87-1.59,1.34-2.37l.11.02Z"/>
        <path class="cls-1" d="m86.39,157.02h-.21c-1.5,0-2.46-.3-3.24-1.08-1.16-1.18-1.18-2.52-1.18-5.31,0-3.6-.21-7.37-.49-11.39.64-.7,1.23-1.33,1.78-1.76l.13.08c.3,4.15.3,9.06.3,13.72v1.08c0,1.21.68,1.76,1.42,2.03.47.17.97.21,1.21.21h.26v2.43Z"/>
        <path class="cls-1" d="m93.96,154.59v2.43h-7.58c-1.04,0-1.33-.76-1.33-1.27,0-.46.3-1.16,1.33-1.16h7.58Z"/>
        <path class="cls-1" d="m101.54,154.59v2.43h-7.58c-1.04,0-1.33-.76-1.33-1.27,0-.46.3-1.16,1.33-1.16h7.58Z"/>
        <path class="cls-1" d="m109.12,154.59v2.43h-7.58c-1.04,0-1.33-.76-1.33-1.27,0-.46.3-1.16,1.33-1.16h7.58Z"/>
        <path class="cls-1" d="m116.7,154.59v2.43h-7.58c-1.04,0-1.33-.76-1.33-1.27,0-.46.3-1.16,1.33-1.16h7.58Z"/>
        <path class="cls-1" d="m124.28,154.59v2.43h-7.58c-1.04,0-1.33-.76-1.33-1.27,0-.46.3-1.16,1.33-1.16h7.58Z"/>
        <path class="cls-1" d="m131.86,154.59v2.43h-7.58c-1.04,0-1.33-.76-1.33-1.27,0-.46.3-1.16,1.33-1.16h7.58Z"/>
        <path class="cls-1" d="m139.44,154.59v2.43h-7.58c-1.04,0-1.33-.76-1.33-1.27,0-.46.3-1.16,1.33-1.16h7.58Z"/>
        <path class="cls-1" d="m147.02,154.59v2.43h-7.58c-1.04,0-1.33-.76-1.33-1.27,0-.46.3-1.16,1.33-1.16h7.58Z"/>
        <path class="cls-1" d="m154.6,154.59v2.43h-7.58c-1.04,0-1.33-.76-1.33-1.27,0-.46.3-1.16,1.33-1.16h7.58Z"/>
        <path class="cls-1" d="m162.18,154.59v2.43h-7.58c-1.04,0-1.33-.76-1.33-1.27,0-.46.3-1.16,1.33-1.16h7.58Z"/>
        <path class="cls-1" d="m169.76,154.59v2.43h-7.58c-1.04,0-1.33-.76-1.33-1.27,0-.46.3-1.16,1.33-1.16h7.58Z"/>
        <path class="cls-1" d="m177.33,154.59v2.43h-7.58c-1.04,0-1.33-.76-1.33-1.27,0-.46.3-1.16,1.33-1.16h7.58Z"/>
        <path class="cls-1" d="m184.91,154.59v2.43h-7.58c-1.04,0-1.33-.76-1.33-1.27,0-.46.3-1.16,1.33-1.16h7.58Z"/>
        <path class="cls-1" d="m192.49,154.59v2.43h-7.58c-1.04,0-1.33-.76-1.33-1.27,0-.46.3-1.16,1.33-1.16h7.58Z"/>
        <path class="cls-1" d="m200.07,154.59v2.43h-7.58c-1.04,0-1.33-.76-1.33-1.27,0-.46.3-1.16,1.33-1.16h7.58Z"/>
        <path class="cls-1" d="m207.65,154.59v2.43h-7.58c-1.04,0-1.33-.76-1.33-1.27,0-.46.3-1.16,1.33-1.16h7.58Z"/>
        <path class="cls-1" d="m215.23,154.59v2.43h-7.58c-1.04,0-1.33-.76-1.33-1.27,0-.46.3-1.16,1.33-1.16h7.58Z"/>
        <path class="cls-1" d="m222.81,154.59v2.43h-7.58c-1.04,0-1.33-.76-1.33-1.27,0-.46.3-1.16,1.33-1.16h7.58Z"/>
        <path class="cls-1" d="m230.39,154.59v2.43h-7.58c-1.04,0-1.33-.76-1.33-1.27,0-.46.3-1.16,1.33-1.16h7.58Z"/>
        <path class="cls-1" d="m230.71,154.59c1.04,0,2.22-.27,3.05-.46-.61-1.02-.66-1.95-.66-2.88,0-1.44.44-3.13,1.71-4.45.99-1.06,2.18-1.76,2.86-1.76s1.52.76,2.22,2.1c.45.87.72,1.76.72,2.69,0,1.74-.51,3.11-1.27,4.42.72.21,1.69.34,2.96.34h.61v2.43h-.55c-1.89,0-3.79-.36-6.2-1.21-2.41.85-4.13,1.21-5.42,1.21h-.34c-1.04,0-1.33-.76-1.33-1.27,0-.46.3-1.16,1.33-1.16h.32Zm4.45-11.73c-.78-.74-1.46-1.35-2.22-1.97.49-.68,1.02-1.31,1.5-1.8.78.61,1.42,1.23,2.16,2.03-.53.76-.91,1.25-1.44,1.74Zm4.4,8.4c0-.68-.27-1.33-.46-1.71-.51-1-1.1-1.71-1.88-1.71-1.48,0-2.92,1.76-3.26,3.17.26,1.1.97,2.03,2.6,2.52,1.31-.27,3-1.5,3-2.27Zm-.74-8.64c-.78-.74-1.46-1.35-2.22-1.97.49-.68,1.02-1.31,1.5-1.8.78.61,1.42,1.23,2.16,2.03-.53.76-.91,1.25-1.44,1.74Z"/>
        <path class="cls-1" d="m243.69,154.59c1.63,0,2.96-.06,4.97-.95v-.08c-.87-.59-1.76-1.63-2.65-2.45-.47-.44-.99-.8-1.31-.8h-.59l-.06-.04.74-2.18.59-.08c1.48-.32,3.22-.62,5.08-.62,2.2,0,4.09.36,5.5.95l-.66,2.07-3.3,3.05v.08c1.27.68,2.71,1.04,4.32,1.04h.76v2.43h-.57c-2.12,0-4.47-.8-6.31-2.22h-.08c-2.33,1.69-4.36,2.22-6.63,2.22h-.59c-1.04,0-1.33-.76-1.33-1.27,0-.46.3-1.16,1.33-1.16h.8Zm6.88-1.86c1.12-.8,2.27-1.67,3.49-2.82v-.08c-1.04-.25-2.2-.47-3.52-.47-1.23,0-2.39.13-3.51.34v.08c.34.3.72.7,1.12,1.08.62.59,1.46,1.25,2.35,1.88h.08Z"/>
        <path class="cls-1" d="m257.44,154.59c.78,0,1.61-.27,2.2-.59.57-.32.91-.93.91-2.27,0-3.81-.21-7.22-.49-11.58l-.06-.95,1.69-1.71.09.04c.36,4.45.38,9.1.38,14.9,0,.87.61,2.16,2.8,2.16h.25v2.43h-.4c-1.76,0-3.09-.61-3.7-2.01h-.08c-.59,1.08-1.82,2.01-3.66,2.01h-.32c-1.04,0-1.33-.76-1.33-1.27,0-.46.3-1.16,1.33-1.16h.38Z"/>
        <path class="cls-1" d="m265.63,154.59c.61,0,1.31-.08,2.12-.51.66-.38,1-1.06,1-2.05-.04-3.03-.25-6.35-.55-9.84-.08-.87-.19-1.67-.19-2.37,0-.42.19-.85.57-1.27.27-.32.63-.68,1.04-1.04l.13.09c-.04,1.23.55,2.71,1.54,4.34-.34.32-.74.64-1.19.97.08,2.18.25,4.47.25,6.58s-.21,3.62-.76,4.76c-.4.97-.85,1.76-1.72,2.2-.74.38-1.63.57-2.37.57h-.28c-1.04,0-1.33-.76-1.33-1.27,0-.46.3-1.16,1.33-1.16h.42Z"/>
        <path class="cls-1" d="m286.85,157.02h-.21c-1.5,0-2.46-.3-3.24-1.08-1.16-1.18-1.17-2.52-1.17-5.31,0-3.6-.21-7.37-.49-11.39.64-.7,1.23-1.33,1.78-1.76l.13.08c.3,4.15.3,9.06.3,13.72v1.08c0,1.21.68,1.76,1.42,2.03.47.17.97.21,1.21.21h.26v2.43Z"/>
        <path class="cls-1" d="m294.43,154.59v2.43h-7.58c-1.04,0-1.33-.76-1.33-1.27,0-.46.3-1.16,1.33-1.16h7.58Z"/>
        <path class="cls-1" d="m302.01,154.59v2.43h-7.58c-1.04,0-1.33-.76-1.33-1.27,0-.46.3-1.16,1.33-1.16h7.58Z"/>
        <path class="cls-1" d="m309.59,154.59v2.43h-7.58c-1.04,0-1.33-.76-1.33-1.27,0-.46.3-1.16,1.33-1.16h7.58Z"/>
        <path class="cls-1" d="m317.17,154.59v2.43h-7.58c-1.04,0-1.33-.76-1.33-1.27,0-.46.3-1.16,1.33-1.16h7.58Z"/>
        <path class="cls-1" d="m324.74,154.59v2.43h-7.58c-1.04,0-1.33-.76-1.33-1.27,0-.46.3-1.16,1.33-1.16h7.58Z"/>
        <path class="cls-1" d="m332.32,154.59v2.43h-7.58c-1.04,0-1.33-.76-1.33-1.27,0-.46.3-1.16,1.33-1.16h7.58Z"/>
        <path class="cls-1" d="m339.9,154.59v2.43h-7.58c-1.04,0-1.33-.76-1.33-1.27,0-.46.3-1.16,1.33-1.16h7.58Z"/>
        <path class="cls-1" d="m347.48,154.59v2.43h-7.58c-1.04,0-1.33-.76-1.33-1.27,0-.46.3-1.16,1.33-1.16h7.58Z"/>
        <path class="cls-1" d="m355.06,154.59v2.43h-7.58c-1.04,0-1.33-.76-1.33-1.27,0-.46.3-1.16,1.33-1.16h7.58Z"/>
        <path class="cls-1" d="m362.64,154.59v2.43h-7.58c-1.04,0-1.33-.76-1.33-1.27,0-.46.3-1.16,1.33-1.16h7.58Z"/>
        <path class="cls-1" d="m370.22,154.59v2.43h-7.58c-1.04,0-1.33-.76-1.33-1.27,0-.46.3-1.16,1.33-1.16h7.58Z"/>
        <path class="cls-1" d="m377.8,154.59v2.43h-7.58c-1.04,0-1.33-.76-1.33-1.27,0-.46.3-1.16,1.33-1.16h7.58Z"/>
        <path class="cls-1" d="m385.38,154.59v2.43h-7.58c-1.04,0-1.33-.76-1.33-1.27,0-.46.3-1.16,1.33-1.16h7.58Z"/>
        <path class="cls-1" d="m392.96,154.59v2.43h-7.58c-1.04,0-1.33-.76-1.33-1.27,0-.46.3-1.16,1.33-1.16h7.58Z"/>
        <path class="cls-1" d="m400.53,154.59v2.43h-7.58c-1.04,0-1.33-.76-1.33-1.27,0-.46.3-1.16,1.33-1.16h7.58Z"/>
        <path class="cls-1" d="m412.32,136.63c-.42.78-.91,1.55-1.42,2.33-.97.25-2.03.57-3.05.93-2.01.7-4.08,1.53-6.24,2.48v.06l3.09,1.19-.45.95c2.92,2.37,4.87,4.78,4.87,6.77,0,1.76-.47,3.17-1.21,3.92-1.19,1.06-3.09,1.76-6.61,1.76h-.76c-1.04,0-1.33-.76-1.33-1.27,0-.46.3-1.16,1.33-1.16h1.19c1.95,0,3.77-.19,5.06-.99.68-.42,1.04-.8,1.04-1.02,0-.85-.59-1.86-1.31-2.84-.83-1.14-2.6-2.96-5.7-5.36-.55-.42-.68-1.1-.68-1.74,0-.38.19-.8.44-1.21.21-.34.57-.72,1.42-1.16,2.22-1.12,5.84-2.37,10.2-3.79l.13.15Z"/>
        <path class="cls-1" d="m417.57,147.24l1.35,2.56c.49.95.95,1.97.95,3.6v2.08c0,1.69-.91,3.49-2.39,5.27-1.16,1.21-2.18,1.72-3.13,1.72-1.4,0-3.01-.51-4.87-1.46l.21-.64c.59.19,1.27.34,2.1.34,2.67-.02,5.4-2.31,6.65-5.12.15-.32.21-.62.21-.83,0-.32-.15-.68-.27-1-.68-1.52-1.44-2.9-2.27-4.17.44-.82.87-1.59,1.34-2.37l.11.02Z"/>
        <path class="cls-1" d="m433.35,154.59v2.43h-1.57c-.09,1.19-.64,2.69-1.44,3.88-1.46,2.22-3.56,3.24-4.57,3.24-1.72,0-3.64-.8-5.46-1.92l.32-.62c.74.4,1.65.68,2.79.68,1.91,0,3.64-.95,5.27-2.62.91-.93,1.54-1.69,1.78-2.65h-.93c-3.87,0-5.84-1.23-5.84-3.89,0-1.29.42-2.27.97-3.05.72-1.04,1.72-1.82,2.92-1.82,1.74,0,3.54,2.44,4.07,6.33h1.69Zm-4.3-2.77c-.61-.68-1.31-1.06-2.01-1.06-1.06,0-2.14.91-2.14,1.67,0,.97.89,1.54,2.07,1.88,1.04.28,2.18.28,3.41.28-.21-1.06-.68-2.07-1.33-2.77Z"/>
        <path class="cls-1" d="m433.77,154.59c1.4,0,2.5-.97,3.18-3.35.21-.76.7-1.54,1.4-2.29.7-.64,1.48-1.1,2.39-1.1,2.31,0,3.68,3.18,3.98,6.5-.4,1.72-1.1,2.45-2.01,2.45-1.88,0-3.75-.85-5.63-2.24h-.13c-.49,1.67-1.57,2.46-3.28,2.46h-.32c-1.04,0-1.33-.76-1.33-1.27,0-.46.3-1.16,1.33-1.16h.42Zm6.63-.76c.72.3,1.5.55,2.25.55.29,0,.53-.04.61-.21-.55-2.86-1.8-4.13-2.99-4.13-1.08,0-1.99.61-2.54,1.86.57.85,1.54,1.46,2.67,1.93Z"/>
      </g>
    </g>
  </g>
</svg>