<?xml version="1.0" encoding="UTF-8"?>
<svg id="Layer_2" data-name="Layer 2" xmlns="http://www.w3.org/2000/svg" viewBox="0 0 486.17 176.42">
  <defs>
    <style>
      .cls-1 {
        fill: #e10032;
      }
    </style>
  </defs>
  <g id="Layer_1-2" data-name="Layer 1">
    <g>
      <g>
        <g>
          <g>
            <path class="cls-1" d="m223.3,86.83v-36.9l-13.21,26.87h-7.77l-13.21-26.87v36.9h-14.16V24.89h15.37l15.89,32.37,15.97-32.37h15.28v61.94h-14.16Z"/>
            <path class="cls-1" d="m276.05,87.26c-4.61,0-8.76-.89-12.48-2.66-3.71-1.77-6.9-4.16-9.58-7.15-2.67-3-4.74-6.37-6.17-10.12-1.44-3.75-2.15-7.63-2.15-11.64s.76-8.06,2.29-11.78c1.53-3.72,3.65-7.05,6.39-9.99,2.74-2.93,5.97-5.25,9.71-6.93,3.74-1.69,7.83-2.53,12.26-2.53s8.67.89,12.39,2.66c3.71,1.77,6.91,4.17,9.58,7.2s4.74,6.41,6.17,10.16c1.44,3.75,2.16,7.58,2.16,11.47,0,4.13-.75,8.06-2.25,11.78-1.49,3.73-3.63,7.06-6.39,9.99-2.76,2.93-6,5.26-9.71,6.98-3.71,1.72-7.78,2.57-12.22,2.57Zm-15.97-31.4c0,2.39.35,4.7,1.04,6.93.69,2.24,1.71,4.23,3.06,5.98,1.35,1.74,3.04,3.14,5.05,4.18,2.01,1.05,4.31,1.57,6.9,1.57s5.06-.53,7.08-1.61c2.01-1.07,3.68-2.51,5.01-4.32,1.32-1.8,2.31-3.82,2.98-6.06.66-2.24.99-4.52.99-6.85s-.35-4.68-1.04-6.89c-.69-2.21-1.72-4.2-3.11-5.98-1.38-1.77-3.08-3.15-5.1-4.14-2.01-.99-4.29-1.49-6.82-1.49-2.71,0-5.05.53-7.04,1.57-1.99,1.05-3.66,2.46-5.01,4.23-1.35,1.77-2.36,3.78-3.02,6.02-.67,2.24-.99,4.52-.99,6.85Z"/>
            <path class="cls-1" d="m314.81,86.83V24.89h27.63c2.88,0,5.54.6,7.99,1.79,2.45,1.19,4.56,2.79,6.34,4.8,1.78,2.01,3.18,4.26,4.19,6.76,1.01,2.5,1.51,5.03,1.51,7.59s-.4,4.99-1.21,7.28c-.81,2.3-1.96,4.36-3.45,6.2-1.5,1.83-3.28,3.33-5.35,4.49l13.47,23.03h-15.63l-11.74-19.98h-9.58v19.98h-14.16Zm14.16-32.46h12.95c1.15,0,2.17-.36,3.06-1.09.89-.73,1.63-1.73,2.2-3.01.58-1.28.87-2.76.87-4.45s-.33-3.15-.99-4.41c-.67-1.25-1.48-2.22-2.46-2.92-.98-.7-2.01-1.05-3.11-1.05h-12.52v16.93Z"/>
            <path class="cls-1" d="m372.66,86.83V24.89h14.16v26.7l22.45-26.7h15.88l-22.97,27.66,24.52,34.29h-16.23l-17.27-24.86-6.39,6.63v18.23h-14.16Z"/>
            <path class="cls-1" d="m449.82,24.89h15.28l21.07,61.94h-14.51l-4.15-13.87h-20.18l-4.15,13.87h-14.5l21.15-61.94Zm14.73,38.21l-7.13-23.81-7.14,23.81h14.27Z"/>
          </g>
          <g>
            <path d="m185.34,114.04l-3.35-4.72c-.41.03-.74.05-.98.05h-3.84v4.67h-2.22v-15.35h6.06c2.01,0,3.6.47,4.75,1.42,1.15.95,1.73,2.26,1.73,3.93,0,1.18-.3,2.19-.89,3.03-.59.84-1.44,1.44-2.53,1.82l3.69,5.16h-2.42Zm-1.18-7.44c.74-.6,1.11-1.45,1.11-2.57s-.37-1.96-1.11-2.55c-.74-.59-1.81-.89-3.22-.89h-3.77v6.91h3.77c1.41,0,2.48-.3,3.22-.9Z"/>
            <path d="m218.8,112.13v1.91h-11.28v-15.35h10.97v1.91h-8.75v4.71h7.79v1.87h-7.79v4.96h9.06Z"/>
            <path d="m248.73,110.2h-8.26l-1.71,3.84h-2.29l7.04-15.35h2.2l7.06,15.35h-2.33l-1.71-3.84Zm-.78-1.75l-3.35-7.52-3.35,7.52h6.7Z"/>
            <path d="m271.51,98.68h2.22v13.44h8.42v1.91h-10.64v-15.35Z"/>
            <path d="m334.81,112.13v1.91h-11.28v-15.35h10.97v1.91h-8.75v4.71h7.79v1.87h-7.79v4.96h9.06Z"/>
            <path d="m355.98,113.68c-1.09-.36-1.94-.82-2.57-1.39l.82-1.71c.59.53,1.35.95,2.28,1.28.92.33,1.88.49,2.85.49,1.29,0,2.25-.22,2.89-.65.64-.43.95-1.01.95-1.72,0-.53-.17-.95-.52-1.28-.35-.33-.78-.58-1.29-.75-.51-.18-1.23-.38-2.17-.59-1.17-.28-2.11-.56-2.83-.83s-1.33-.71-1.84-1.28-.77-1.35-.77-2.34c0-.82.22-1.56.66-2.21.43-.66,1.1-1.18,1.99-1.58.89-.39,1.99-.59,3.31-.59.92,0,1.82.12,2.71.35.89.23,1.65.57,2.28,1.01l-.73,1.75c-.65-.41-1.35-.72-2.09-.93-.74-.21-1.46-.32-2.17-.32-1.26,0-2.2.23-2.83.68-.63.45-.94,1.04-.94,1.75,0,.53.18.96.53,1.28.36.33.8.59,1.32.77.53.18,1.24.38,2.14.58,1.17.28,2.11.56,2.82.84.71.28,1.32.7,1.83,1.27.51.57.77,1.34.77,2.3,0,.8-.22,1.54-.67,2.2-.44.67-1.11,1.19-2.02,1.58-.9.39-2.01.58-3.33.58-1.17,0-2.3-.18-3.39-.53Z"/>
            <path d="m387.92,100.59h-5.33v-1.91h12.86v1.91h-5.33v13.44h-2.2v-13.44Z"/>
            <path d="m423.42,110.2h-8.26l-1.71,3.84h-2.29l7.04-15.35h2.2l7.06,15.35h-2.33l-1.71-3.84Zm-.78-1.75l-3.35-7.52-3.35,7.52h6.71Z"/>
            <path d="m448.51,100.59h-5.33v-1.91h12.86v1.91h-5.33v13.44h-2.2v-13.44Z"/>
            <path d="m486.17,112.13v1.91h-11.28v-15.35h10.97v1.91h-8.75v4.71h7.79v1.87h-7.79v4.96h9.06Z"/>
          </g>
        </g>
        <g>
          <polygon class="cls-1" points="135.8 97.08 135.8 17.13 135.8 0 135.8 0 22.63 0 22.63 0 22.63 17.13 22.63 97.08 0 97.08 0 114.21 22.63 114.21 33.95 114.21 39.61 114.21 39.61 17.13 118.83 17.13 118.83 114.21 124.47 114.21 135.8 114.21 158.42 114.21 158.42 97.08 135.8 97.08"/>
          <polygon class="cls-1" points="50.93 114.21 73.56 114.21 73.56 45.68 50.93 34.26 50.93 114.21"/>
          <polygon class="cls-1" points="84.88 114.21 107.51 114.21 107.51 34.26 84.88 45.68 84.88 114.21"/>
        </g>
      </g>
      <g>
        <path d="m13.34,151.13l-.74,2.51c-.62-.06-1.29-.11-2.01-.14-.72-.03-1.53-.05-2.42-.05-3.67,0-5.51.33-5.52.99l.13.57c.04.12.1.39.19.8.09.41.21.96.36,1.67.3,1.45.53,2.75.7,3.91.17,1.16.24,2.19.22,3.1,0,1.12-.38,2.38-1.13,3.79-.16-1.86-.37-3.61-.62-5.25-.25-1.63-.55-3.17-.88-4.61-.23-.98-.41-1.82-.53-2.5-.12-.68-.18-1.22-.18-1.61,0-1.38.39-2.3,1.17-2.78.44-.26,1.44-.51,2.98-.75,1.36-.22,2.34-.33,2.93-.33.21,0,.37.02.48.06l-2.43-2.93-3.17,1.77.03-1.1c0-.35.54-1.08,1.59-2.17,1.04-1.1,1.74-1.64,2.09-1.64.49,0,1.29.75,2.39,2.23,1.37,1.88,2.14,2.9,2.32,3.04.23.2.52.41.85.64.34.23.74.48,1.2.76Z"/>
        <path d="m18.77,153.1c0,1.41-.65,2.11-1.96,2.11-.58,0-1.05-.19-1.41-.57-.36-.38-.54-.88-.54-1.5,0-1.42.68-2.13,2.04-2.13.55,0,1,.2,1.35.6s.52.89.52,1.48Z"/>
        <path d="m35.74,151.65c0,.46-.03.83-.09,1.11-.06.28-.21.52-.44.72-.23.2-.58.36-1.04.49-.46.13-1.11.26-1.93.4-1.37.22-2.61.33-3.71.33s-1.92-.13-2.32-.39c-.53-.34-.8-1.1-.8-2.27,0-.18.03-.46.09-.85.06-.39.13-.77.22-1.15.09-.38.19-.71.3-.99.11-.29.22-.43.33-.43.02,0,.04,0,.06.01v1.15c0,.79.07,1.23.22,1.33.46.28,1.27.42,2.4.42.4,0,.83-.02,1.29-.05.46-.04.97-.09,1.52-.18,1.48-.22,2.22-.52,2.22-.9,0-.52-.33-1.76-.98-3.74-.68-2.06-1.15-3.13-1.42-3.21l1.62-3.6c.17.05.62,1.57,1.35,4.55.75,3.2,1.13,5.61,1.13,7.25Zm-1.19-17.4l-1.33,2.44-3.26-2.03,1.26-2.44,3.33,2.03Z"/>
        <path d="m41.2,153.1c0,1.41-.65,2.11-1.96,2.11-.58,0-1.05-.19-1.41-.57-.36-.38-.54-.88-.54-1.5,0-1.42.68-2.13,2.04-2.13.55,0,1,.2,1.35.6s.52.89.52,1.48Z"/>
        <path d="m58.18,151.65c0,.46-.03.83-.09,1.11-.06.28-.21.52-.44.72-.23.2-.58.36-1.04.49-.46.13-1.11.26-1.93.4-1.37.22-2.61.33-3.71.33s-1.92-.13-2.32-.39c-.53-.34-.8-1.1-.8-2.27,0-.18.03-.46.09-.85.06-.39.13-.77.22-1.15.09-.38.19-.71.3-.99.11-.29.22-.43.33-.43.02,0,.04,0,.06.01v1.15c0,.79.07,1.23.22,1.33.46.28,1.27.42,2.4.42.4,0,.83-.02,1.29-.05.46-.04.97-.09,1.52-.18,1.48-.22,2.22-.52,2.22-.9,0-.52-.33-1.76-.98-3.74-.68-2.06-1.15-3.13-1.42-3.21l1.62-3.6c.17.05.62,1.57,1.35,4.55.75,3.2,1.13,5.61,1.13,7.25Zm-1.19-17.4l-1.33,2.44-3.26-2.03,1.26-2.44,3.33,2.03Z"/>
        <path d="m63.64,153.1c0,1.41-.65,2.11-1.96,2.11-.58,0-1.05-.19-1.41-.57-.36-.38-.54-.88-.54-1.5,0-1.42.68-2.13,2.04-2.13.55,0,1,.2,1.35.6s.52.89.52,1.48Z"/>
        <path d="m96.37,149.85c0,2.41-.14,3.63-.41,3.66-.26.03-.58.06-.97.09-.39.03-.85.04-1.39.04-1.07,0-2.03-.08-2.88-.23-.85-.16-1.63-.41-2.37-.76-.51.46-1.11.73-1.78.82-.25.03-.92.05-2.01.05,0,2.3-1.05,4.23-3.16,5.79-2.13,1.47-4.31,2.2-6.53,2.2-1.19,0-2.22-.09-3.08-.28-.87-.19-1.59-.48-2.15-.88-.56-.4-.98-.9-1.26-1.51s-.41-1.34-.41-2.19c0-1.22.36-2.69,1.09-4.42.92-2.12,1.68-3.44,2.27-3.96-.21.31-.42.72-.62,1.22-.2.5-.38,1.03-.54,1.58-.16.55-.29,1.1-.38,1.63s-.14,1-.14,1.39c0,3.01,1.81,4.52,5.45,4.52.65-.01,1.27-.08,1.88-.2.61-.12,1.18-.28,1.72-.46.54-.18,1.03-.38,1.47-.6.44-.22.83-.43,1.16-.63s.59-.37.78-.52c.19-.15.31-.25.35-.3.2-.28.3-.79.3-1.52-.02-.51-.07-1.02-.16-1.53s-.21-1.01-.38-1.5-.37-.96-.62-1.41c-.25-.44-.54-.85-.88-1.21l2.26-2.84c.71,1.48,1.22,2.93,1.51,4.34.1.38.69.57,1.78.57.91,0,1.48-.14,1.72-.43.21-.25.32-.89.32-1.92,0-.39-.04-.67-.13-.84l2-2.16c.02.21.03.48.04.81,0,.34,0,.73,0,1.19,0,1.04-.15,1.93-.43,2.65-.03.05-.04.1-.04.16,0,.36.65.54,1.94.54.51,0,.93-.02,1.26-.05.33-.03.59-.08.78-.16.19-.07.33-.18.4-.31s.11-.3.11-.5c0-1.12-.27-1.9-.81-2.34l2.4-2.28c.37.31.55,1.87.55,4.69Zm-11.46-8.55l1.2-2.45,3.17,2.03-1.25,2.48-3.13-2.06Zm5.21-5.14l-1.32,2.61-3.29-2.13,1.26-2.48,3.35,2Zm2.4,6.78l-3.24-2.06,1.13-2.31,3.26,2.06-1.14,2.31Z"/>
        <path d="m127.3,149.93c0,1.9-.34,3.15-1.03,3.72-.26.22-.71.42-1.36.61-.65.19-1.49.38-2.53.57-1.01.18-1.99.31-2.92.4s-1.84.13-2.72.13c-6.22,0-9.33-1.74-9.33-5.23,0-.85.2-1.68.61-2.48.14-.27.59-.97,1.38-2.11-.42,1.43-.62,2.43-.62,3.01,0,1.71,1.1,2.83,3.29,3.38.54.13,1.24.24,2.09.3s1.88.1,3.06.1c.68,0,1.41-.02,2.19-.07s1.65-.12,2.59-.22c2.57-.27,3.85-.67,3.85-1.2,0-.61-.48-1.56-1.43-2.86l1.33-3.12c1.03,1.8,1.55,3.49,1.55,5.06Zm-14.24-8.55l1.23-2.3,3.03,2.08-1.25,2.16-3.01-1.94Zm7.3,1.86l-3.04-2.08,1.27-2.2,3.06,1.96-1.29,2.33Z"/>
        <path d="m134.92,150.26l-2.19,3.32v-20.13l2.19-2.84v19.65Z"/>
        <path d="m146.97,152.79c0,2.65-.98,4.9-2.93,6.77-1.68,1.6-3.3,2.41-4.87,2.41-1.98,0-3.91-1.39-5.79-4.17.16.13.38.28.64.43.63.28,1.27.5,1.93.68.66.17,1.33.26,2.01.27,3.13,0,5.58-1.81,7.36-5.42.13-.27.19-.53.19-.79,0-1.41-.98-2.84-2.93-4.31l1.26-2.93c.46.32.89.73,1.27,1.23.39.5.72,1.07.99,1.71.28.64.49,1.31.64,2.01.15.7.22,1.41.22,2.13Z"/>
        <path d="m158.72,153.58h-3.32c-.94,0-1.71-.12-2.31-.35-.6-.23-1.05-.6-1.33-1.1s-.43-1.39-.43-2.66v-15.94l2.17-2.92v18.86c0,.75.33,1.13.98,1.13h4.23v2.98Z"/>
        <path d="m165.21,153.58h-9.1v-2.98h9.1v2.98Z"/>
        <path d="m171.71,153.58h-9.1v-2.98h9.1v2.98Z"/>
        <path d="m178.21,153.58h-9.1v-2.98h9.1v2.98Z"/>
        <path d="m184.72,153.58h-9.1v-2.98h9.1v2.98Z"/>
        <path d="m191.22,153.58h-9.1v-2.98h9.1v2.98Z"/>
        <path d="m197.72,153.58h-9.1v-2.98h9.1v2.98Z"/>
        <path d="m204.23,153.58h-9.1v-2.98h9.1v2.98Z"/>
        <path d="m210.73,153.58h-9.1v-2.98h9.1v2.98Z"/>
        <path d="m217.23,153.58h-9.1v-2.98h9.1v2.98Z"/>
        <path d="m223.73,153.58h-9.1v-2.98h9.1v2.98Z"/>
        <path d="m230.24,153.58h-9.1v-2.98h9.1v2.98Z"/>
        <path d="m236.74,153.58h-9.1v-2.98h9.1v2.98Z"/>
        <path d="m243.24,153.58h-9.1v-2.98h9.1v2.98Z"/>
        <path d="m249.75,153.58h-9.1v-2.98h9.1v2.98Z"/>
        <path d="m256.25,153.58h-9.09v-2.98h9.09v2.98Z"/>
        <path d="m262.75,153.58h-9.09v-2.98h9.09v2.98Z"/>
        <path d="m269.25,153.58h-9.09v-2.98h9.09v2.98Z"/>
        <path d="m275.76,153.58h-9.09v-2.98h9.09v2.98Z"/>
        <path d="m282.26,153.58h-9.09v-2.98h9.09v2.98Z"/>
        <path d="m293.82,153.58h-14.15v-2.98h8.36c-.36-.28-.97-.57-1.83-.87-.49-.19-.91-.38-1.25-.58-.34-.2-.61-.42-.81-.66-.2-.24-.35-.51-.43-.81-.09-.3-.13-.64-.13-1.02,0-1.04.51-2.34,1.54-3.88,1.08-1.63,2.07-2.45,2.96-2.45.96,0,1.78,1.18,2.45,3.54.54,1.93.81,3.82.81,5.66,0,.48-.03.83-.1,1.07h2.59v2.98Zm-12.12-18.61l1.23-2.3,3.03,2.08-1.25,2.16-3.01-1.94Zm8.07,13.27c0-.6-.3-1.53-.9-2.79-.63-1.32-1.21-1.99-1.75-1.99-.15,0-.34.09-.55.28-.21.19-.42.4-.64.65-.21.25-.4.5-.57.76s-.27.47-.3.64l4.62,2.69c.06-.04.09-.12.09-.23Zm-.77-11.41l-3.04-2.08,1.27-2.2,3.06,1.96-1.29,2.33Z"/>
        <path d="m307.4,153.58h-2.88c-2.12,0-3.68-.73-4.68-2.2l-1.8,1.09c-1.84.74-3.33,1.12-4.46,1.12h-2.36v-2.98c1.02,0,1.73-.02,2.11-.05.38-.03,1.3-.16,2.76-.39,1.55-.3,2.33-.71,2.33-1.24,0-.23-.09-.46-.27-.7-.18-.24-.4-.45-.65-.64s-.53-.35-.81-.47c-.28-.12-.53-.18-.73-.18-.53,0-.97.12-1.33.37,0-.43.23-1.15.7-2.14.47-1,.88-1.67,1.23-2,.58-.55,1.35-.82,2.3-.82.52,0,1.03.11,1.54.33.5.22.96.5,1.36.86.41.36.73.77.98,1.25.25.48.37.97.37,1.47s-.46,1.69-1.39,3.48c.36.52,1.26.81,2.72.88,0-.01.98-.02,2.97-.02v2.98Z"/>
        <path d="m314.86,153.58h-10.05v-2.98h4.34v-16.25l2.25-3.74v19.99h3.46v2.98Z"/>
        <path d="m319.85,135.34l-1.19,2.58v15.18l-.74.48h-5.65v-2.98h4.21v-14.06l-.77-3.2,2.55-2.73.22,3.2,1.36,1.54Z"/>
        <path d="m341.7,153.58h-3.32c-.94,0-1.71-.12-2.31-.35-.6-.23-1.05-.6-1.33-1.1-.29-.5-.43-1.39-.43-2.66v-15.94l2.17-2.92v18.86c0,.75.33,1.13.98,1.13h4.23v2.98Z"/>
        <path d="m348.19,153.58h-9.09v-2.98h9.09v2.98Z"/>
        <path d="m354.69,153.58h-9.09v-2.98h9.09v2.98Z"/>
        <path d="m361.19,153.58h-9.09v-2.98h9.09v2.98Z"/>
        <path d="m367.7,153.58h-9.09v-2.98h9.09v2.98Z"/>
        <path d="m374.2,153.58h-9.09v-2.98h9.09v2.98Z"/>
        <path d="m380.7,153.58h-9.09v-2.98h9.09v2.98Z"/>
        <path d="m387.21,153.58h-9.09v-2.98h9.09v2.98Z"/>
        <path d="m393.71,153.58h-9.09v-2.98h9.09v2.98Z"/>
        <path d="m400.21,153.58h-9.09v-2.98h9.09v2.98Z"/>
        <path d="m406.72,153.58h-9.09v-2.98h9.09v2.98Z"/>
        <path d="m413.22,153.58h-9.09v-2.98h9.09v2.98Z"/>
        <path d="m419.72,153.58h-9.09v-2.98h9.09v2.98Z"/>
        <path d="m426.22,153.58h-9.09v-2.98h9.09v2.98Z"/>
        <path d="m432.73,153.58h-9.09v-2.98h9.09v2.98Z"/>
        <path d="m439.23,153.58h-9.09v-2.98h9.09v2.98Z"/>
        <path d="m450.86,151.37c0,.92-.14,1.6-.41,2.03-.07.11-.6.17-1.59.17h-12.22v-2.98h9.31c1.35,0,2.03-.1,2.03-.29,0-.34-1.21-1.7-3.63-4.08-2.4-2.39-3.79-3.58-4.16-3.58-.08.1-.17.45-.29,1.04-.2-.19-.45-.43-.75-.72-.29-.29-.63-.64-1.02-1.03-.71-.76-1.07-1.49-1.07-2.19s.33-1.68,1-2.86c.38-.64,4.62-2.73,12.73-6.27l-1.4,3.71-10.08,4.39c.16.17.38.37.66.61.28.24.62.51,1.02.82,2.28,1.86,4.21,3.62,5.8,5.28,1.59,1.66,2.85,3.23,3.77,4.71.2.32.3.73.3,1.24Z"/>
        <path d="m459.91,152.79c0,2.65-.97,4.9-2.92,6.77-1.68,1.6-3.3,2.41-4.87,2.41-1.98,0-3.91-1.39-5.79-4.17.16.13.38.28.64.43.63.28,1.27.5,1.93.68.66.17,1.33.26,2.01.27,3.13,0,5.58-1.81,7.36-5.42.12-.27.19-.53.19-.79,0-1.41-.98-2.84-2.93-4.31l1.26-2.93c.46.32.89.73,1.27,1.23.39.5.72,1.07.99,1.71.28.64.49,1.31.64,2.01.15.7.22,1.41.22,2.13Z"/>
        <path d="m474.4,153.58h-2.87c-.11,1.08-.38,2.09-.83,3.03-.45.95-1.02,1.77-1.72,2.47s-1.5,1.25-2.4,1.66c-.9.41-1.86.61-2.86.61-1.41,0-2.75-.59-4.03-1.78-1.25-1.18-2.01-2.54-2.27-4.07.42.84,1.27,1.65,2.55,2.42,1.28.79,2.38,1.18,3.29,1.18.74,0,1.48-.14,2.21-.42.73-.28,1.4-.66,2.01-1.15s1.14-1.06,1.59-1.72.77-1.38.95-2.16c-.14.03-.27.05-.39.05-.6,0-1.16-.11-1.69-.32s-.98-.5-1.38-.88c-.39-.37-.7-.81-.93-1.3-.23-.5-.34-1.03-.34-1.6,0-.88.39-2.04,1.17-3.48.85-1.56,1.65-2.34,2.39-2.34.97,0,1.74.92,2.32,2.75.44,1.37.67,2.72.67,4.07h2.58v2.98Zm-4.05-3.35c0-.33-.05-.66-.16-1-.11-.34-.25-.64-.44-.92s-.41-.5-.66-.67c-.25-.17-.52-.26-.8-.26-.17,0-.34.05-.49.16-.15.11-.29.25-.41.41-.12.17-.22.35-.29.54-.07.2-.11.38-.11.56,0,.2.1.39.3.58.2.19.44.36.74.5.29.14.61.25.94.33s.64.12.92.12c.3,0,.45-.12.45-.37Z"/>
        <path d="m485.95,151.3c0,1.69-.79,2.53-2.38,2.53-.81,0-1.81-.21-3-.62-1.28-.44-2.15-.94-2.59-1.49-.36,1.24-1.2,1.86-2.52,1.86h-3.59v-2.98c3.4,0,5.26-.12,5.58-.37.17-.16.46-.78.87-1.86.29-.78.57-1.42.83-1.95s.53-.94.8-1.26.54-.55.83-.69c.29-.14.6-.21.94-.21,1.08,0,2.08.91,3,2.72.41.81.72,1.57.93,2.29.22.72.32,1.4.3,2.04Zm-1.81-1.07c0-.33-.08-.69-.25-1.07s-.37-.74-.62-1.07c-.24-.33-.51-.6-.81-.82-.3-.22-.59-.33-.87-.33-.18,0-.41.09-.67.26-.26.17-.51.38-.75.61-.24.24-.45.49-.62.75s-.26.49-.26.68c0,.09.07.2.22.33.14.12.33.25.56.38.23.13.49.26.77.38s.55.23.83.33c.27.09.52.17.75.23.23.06.42.09.56.09.77,0,1.16-.25,1.16-.75Z"/>
      </g>
    </g>
  </g>
</svg>